# xmcd
#
# Track frame offsets:
#	150
#	9278
#	19328
#	32674
#	37138
#	50098
#	64146
#	64896
#	74079
#
# Disc length: 1200 seconds
#
# Revision: 0
# Processed by: cddbd v1.5.2PL0 Copyright (c) Steve Scherf et al.
# Submitted via: dBpowerAMP V4.0
#
DISCID=8404ae09
DTITLE=Abbe May And The Rockin' Pneumonia - Abbe May And The Rockin' Pneumonia
DYEAR=2006
DGENRE=Blues
TTITLE0=Sidewindin'
TTITLE1=Old River
TTITLE2=We'll Take A Trip Up The Country
TTITLE3=Ma
TTITLE4=Railroad Song
TTITLE5=Luck
TTITLE6=When You Hear The Tone
TTITLE7=Carolina
TTITLE8=Can't Get No Love
EXTD=bilirubin620
EXTT0=
EXTT1=
EXTT2=
EXTT3=
EXTT4=
EXTT5=
EXTT6=
EXTT7=
EXTT8=
PLAYORDER=
